<svg width="112" height="32" viewBox="0 0 112 32" fill="none" xmlns="http://www.w3.org/2000/svg">
<path d="M112 31C112 31.5523 111.552 32 111 32L2.62358 32C1.70488 32 1.27235 30.8652 1.95797 30.2537L17.6367 16.2699C18.0919 15.864 18.0808 15.1488 17.6133 14.7571L2.10843 1.76652C1.39252 1.1667 1.81667 0 2.75065 0L111 0C111.552 0 112 0.447715 112 1L112 31Z" fill="#4970FB"/>
<path d="M48.822 13.7792H49.59V14.3432C49.59 14.8792 49.534 15.4112 49.422 15.9392C49.31 16.4592 49.146 16.9552 48.93 17.4272C48.722 17.8992 48.462 18.3232 48.15 18.6992C47.846 19.0752 47.494 19.3792 47.094 19.6112L46.506 18.8552C46.866 18.6392 47.19 18.3672 47.478 18.0392C47.766 17.7112 48.01 17.3472 48.21 16.9472C48.41 16.5392 48.562 16.1152 48.666 15.6752C48.77 15.2272 48.822 14.7832 48.822 14.3432V13.7792ZM49.002 13.7792H49.77V14.3432C49.77 14.7672 49.822 15.1952 49.926 15.6272C50.03 16.0512 50.182 16.4552 50.382 16.8392C50.59 17.2152 50.834 17.5592 51.114 17.8712C51.402 18.1752 51.73 18.4272 52.098 18.6272L51.522 19.3712C50.994 19.0752 50.542 18.6672 50.166 18.1472C49.79 17.6272 49.502 17.0392 49.302 16.3832C49.102 15.7192 49.002 15.0392 49.002 14.3432V13.7792ZM46.77 13.0232H51.81V13.8512H46.77V13.0232ZM48.822 11.4032H49.77V13.6352H48.822V11.4032ZM54.894 11.0072H55.854V21.8672H54.894V11.0072ZM53.178 15.3872H55.266V16.2272H53.178V15.3872ZM52.53 11.2352H53.478V21.3152H52.53V11.2352ZM63.425 13.7192H65.837V14.5472H63.425V13.7192ZM65.573 11.0072H66.569V17.3552H65.573V11.0072ZM59.525 17.8952H66.569V21.7232H59.525V17.8952ZM65.597 18.6872H60.509V20.9072H65.597V18.6872ZM60.401 12.0392H61.217V12.9152C61.217 13.5712 61.089 14.1912 60.833 14.7752C60.585 15.3512 60.233 15.8552 59.777 16.2872C59.321 16.7112 58.793 17.0352 58.193 17.2592L57.677 16.4672C58.077 16.3232 58.441 16.1312 58.769 15.8912C59.105 15.6512 59.397 15.3752 59.645 15.0632C59.893 14.7432 60.081 14.4032 60.209 14.0432C60.337 13.6752 60.401 13.2992 60.401 12.9152V12.0392ZM60.593 12.0392H61.409V12.9152C61.409 13.3792 61.517 13.8312 61.733 14.2712C61.949 14.7032 62.257 15.0912 62.657 15.4352C63.057 15.7712 63.517 16.0352 64.037 16.2272L63.533 17.0192C62.941 16.8032 62.425 16.4912 61.985 16.0832C61.545 15.6672 61.201 15.1872 60.953 14.6432C60.713 14.0912 60.593 13.5152 60.593 12.9152V12.0392ZM57.989 11.7032H63.785V12.5192H57.989V11.7032ZM71.4881 15.5192H72.4841V17.1632H71.4881V15.5192ZM71.9561 11.5112C72.4761 11.5112 72.9361 11.6032 73.3361 11.7872C73.7441 11.9632 74.0601 12.2112 74.2841 12.5312C74.5161 12.8512 74.6321 13.2232 74.6321 13.6472C74.6321 14.0712 74.5161 14.4472 74.2841 14.7752C74.0601 15.0952 73.7441 15.3472 73.3361 15.5312C72.9361 15.7072 72.4761 15.7952 71.9561 15.7952C71.4361 15.7952 70.9721 15.7072 70.5641 15.5312C70.1641 15.3472 69.8481 15.0952 69.6161 14.7752C69.3921 14.4472 69.2801 14.0712 69.2801 13.6472C69.2801 13.2232 69.3921 12.8512 69.6161 12.5312C69.8481 12.2112 70.1641 11.9632 70.5641 11.7872C70.9721 11.6032 71.4361 11.5112 71.9561 11.5112ZM71.9561 12.2792C71.6201 12.2792 71.3201 12.3352 71.0561 12.4472C70.7921 12.5592 70.5841 12.7192 70.4321 12.9272C70.2881 13.1352 70.2161 13.3752 70.2161 13.6472C70.2161 13.9192 70.2881 14.1592 70.4321 14.3672C70.5841 14.5752 70.7921 14.7392 71.0561 14.8592C71.3201 14.9712 71.6201 15.0272 71.9561 15.0272C72.3001 15.0272 72.6001 14.9712 72.8561 14.8592C73.1201 14.7392 73.3241 14.5752 73.4681 14.3672C73.6201 14.1592 73.6961 13.9192 73.6961 13.6472C73.6961 13.3752 73.6201 13.1352 73.4681 12.9272C73.3241 12.7192 73.1201 12.5592 72.8561 12.4472C72.6001 12.3352 72.3001 12.2792 71.9561 12.2792ZM76.0961 11.0192H77.0921V19.3232H76.0961V11.0192ZM76.6721 14.6792H78.6761V15.5192H76.6721V14.6792ZM70.2281 20.7992H77.4761V21.6152H70.2281V20.7992ZM70.2281 18.6152H71.2241V21.1592H70.2281V18.6152ZM68.7881 17.7152L68.6681 16.8872C69.3001 16.8872 69.9961 16.8832 70.7561 16.8752C71.5241 16.8592 72.3081 16.8272 73.1081 16.7792C73.9081 16.7232 74.6761 16.6392 75.4121 16.5272L75.4841 17.2592C74.7321 17.3952 73.9561 17.4952 73.1561 17.5592C72.3641 17.6232 71.5921 17.6672 70.8401 17.6912C70.0961 17.7072 69.4121 17.7152 68.7881 17.7152ZM82.4671 17.3672H83.4391V20.0312H82.4671V17.3672ZM85.9351 17.3552H86.9071V20.0192H85.9351V17.3552ZM79.7191 19.6952H89.5591V20.5232H79.7191V19.6952ZM80.9191 11.8112H88.3351V15.0992H81.9271V17.2712H80.9431V14.2952H87.3511V12.6272H80.9191V11.8112ZM80.9431 16.8392H88.5871V17.6552H80.9431V16.8392Z" fill="white"/>
</svg>
