<svg width="112" height="32" viewBox="0 0 112 32" fill="none" xmlns="http://www.w3.org/2000/svg">
<path d="M2.7832 31L19.6719 17.0674C20.6608 16.2516 20.6373 14.7287 19.624 13.9434L2.92285 1L111 1L111 31L2.7832 31Z" fill="white" stroke="#4970FB" stroke-width="2"/>
<path d="M60.424 13.016H61.636V13.304C61.636 13.88 61.588 14.452 61.492 15.02C61.404 15.58 61.26 16.112 61.06 16.616C60.868 17.112 60.616 17.564 60.304 17.972C60 18.372 59.624 18.696 59.176 18.944L58.276 17.744C58.668 17.512 59 17.232 59.272 16.904C59.552 16.576 59.776 16.216 59.944 15.824C60.112 15.424 60.232 15.012 60.304 14.588C60.384 14.156 60.424 13.728 60.424 13.304V13.016ZM60.736 13.016H61.948V13.304C61.948 13.72 61.984 14.136 62.056 14.552C62.136 14.96 62.26 15.348 62.428 15.716C62.596 16.084 62.816 16.424 63.088 16.736C63.36 17.04 63.692 17.296 64.084 17.504L63.22 18.692C62.628 18.38 62.148 17.948 61.78 17.396C61.412 16.836 61.144 16.204 60.976 15.5C60.816 14.796 60.736 14.064 60.736 13.304V13.016ZM58.648 11.828H63.712V13.112H58.648V11.828ZM60.424 10.316H61.948V12.848H60.424V10.316ZM66.592 9.944H68.116V21.056H66.592V9.944ZM65.272 14.204H67.108V15.5H65.272V14.204ZM64.204 10.124H65.692V20.564H64.204V10.124ZM75.5431 12.5H77.6431V13.796H75.5431V12.5ZM77.2231 9.956H78.8311V16.376H77.2231V9.956ZM71.4151 16.82H78.8311V20.948H71.4151V16.82ZM77.2591 18.068H72.9871V19.688H77.2591V18.068ZM72.0991 10.976H73.3951V11.684C73.3951 12.38 73.2831 13.044 73.0591 13.676C72.8351 14.308 72.4911 14.864 72.0271 15.344C71.5711 15.816 70.9831 16.168 70.2631 16.4L69.4711 15.14C69.9271 14.988 70.3191 14.792 70.6471 14.552C70.9831 14.304 71.2551 14.024 71.4631 13.712C71.6791 13.4 71.8391 13.072 71.9431 12.728C72.0471 12.384 72.0991 12.036 72.0991 11.684V10.976ZM72.4351 10.976H73.7071V11.672C73.7071 12.104 73.7951 12.536 73.9711 12.968C74.1471 13.392 74.4191 13.776 74.7871 14.12C75.1631 14.464 75.6431 14.736 76.2271 14.936L75.4471 16.184C74.7591 15.952 74.1911 15.608 73.7431 15.152C73.3031 14.696 72.9751 14.168 72.7591 13.568C72.5431 12.968 72.4351 12.336 72.4351 11.672V10.976ZM69.9031 10.508H75.8791V11.78H69.9031V10.508ZM84.7941 15.536H86.3781V17.492H84.7941V15.536ZM80.5581 14.996H90.6141V16.268H80.5581V14.996ZM85.5621 17.048C86.7621 17.048 87.7061 17.224 88.3941 17.576C89.0821 17.92 89.4261 18.416 89.4261 19.064C89.4261 19.696 89.0821 20.188 88.3941 20.54C87.7061 20.892 86.7621 21.068 85.5621 21.068C84.3621 21.068 83.4181 20.892 82.7301 20.54C82.0501 20.188 81.7101 19.696 81.7101 19.064C81.7101 18.416 82.0501 17.92 82.7301 17.576C83.4181 17.224 84.3621 17.048 85.5621 17.048ZM85.5621 18.26C85.0661 18.26 84.6501 18.288 84.3141 18.344C83.9861 18.4 83.7381 18.488 83.5701 18.608C83.4021 18.72 83.3181 18.872 83.3181 19.064C83.3181 19.24 83.4021 19.388 83.5701 19.508C83.7381 19.628 83.9861 19.716 84.3141 19.772C84.6501 19.828 85.0661 19.856 85.5621 19.856C86.0581 19.856 86.4701 19.828 86.7981 19.772C87.1341 19.716 87.3861 19.628 87.5541 19.508C87.7221 19.388 87.8061 19.24 87.8061 19.064C87.8061 18.872 87.7221 18.72 87.5541 18.608C87.3861 18.488 87.1341 18.4 86.7981 18.344C86.4701 18.288 86.0581 18.26 85.5621 18.26ZM84.4941 11H85.9101V11.264C85.9101 11.6 85.8501 11.92 85.7301 12.224C85.6101 12.528 85.4301 12.812 85.1901 13.076C84.9581 13.332 84.6661 13.564 84.3141 13.772C83.9621 13.98 83.5541 14.152 83.0901 14.288C82.6261 14.424 82.1101 14.52 81.5421 14.576L80.9901 13.316C81.4781 13.276 81.9101 13.208 82.2861 13.112C82.6701 13.016 82.9981 12.9 83.2701 12.764C83.5501 12.62 83.7781 12.468 83.9541 12.308C84.1381 12.14 84.2741 11.968 84.3621 11.792C84.4501 11.616 84.4941 11.44 84.4941 11.264V11ZM85.2741 11H86.6781V11.264C86.6781 11.44 86.7221 11.62 86.8101 11.804C86.8981 11.98 87.0301 12.148 87.2061 12.308C87.3901 12.468 87.6181 12.62 87.8901 12.764C88.1701 12.9 88.4981 13.016 88.8741 13.112C89.2581 13.208 89.6941 13.276 90.1821 13.316L89.6301 14.576C89.0621 14.52 88.5461 14.424 88.0821 14.288C87.6181 14.152 87.2101 13.984 86.8581 13.784C86.5141 13.576 86.2221 13.344 85.9821 13.088C85.7501 12.824 85.5741 12.54 85.4541 12.236C85.3341 11.924 85.2741 11.6 85.2741 11.264V11ZM81.4821 10.412H89.7141V11.672H81.4821V10.412Z" fill="#4970FB"/>
</svg>
