<svg width="34" height="34" viewBox="0 0 34 34" fill="none" xmlns="http://www.w3.org/2000/svg">
<path d="M9.48511 26.1978V6.64585H17.6381C19.102 6.64585 20.3271 6.85269 21.3136 7.26639C22.3065 7.68009 23.0512 8.25926 23.5476 9.00391C24.0504 9.74857 24.3018 10.611 24.3018 11.5911C24.3018 12.3358 24.1459 13.0009 23.834 13.5864C23.5221 14.1656 23.0925 14.6461 22.5452 15.028C21.9978 15.4098 21.3646 15.6771 20.6454 15.8299V16.0208C21.4346 16.059 22.1633 16.2722 22.8316 16.6605C23.5062 17.0487 24.0472 17.5897 24.4545 18.2834C24.8619 18.9708 25.0655 19.7855 25.0655 20.7274C25.0655 21.7776 24.7982 22.7163 24.2636 23.5437C23.729 24.3648 22.9557 25.0139 21.9437 25.4913C20.9318 25.9623 19.7034 26.1978 18.2586 26.1978H9.48511ZM14.2108 22.3886H17.1321C18.1568 22.3886 18.911 22.1945 19.3947 21.8062C19.8848 21.418 20.1298 20.877 20.1298 20.1833C20.1298 19.6805 20.0121 19.2477 19.7766 18.8849C19.5411 18.5157 19.207 18.2325 18.7742 18.0352C18.3414 17.8315 17.8227 17.7297 17.218 17.7297H14.2108V22.3886ZM14.2108 14.6843H16.8266C17.3422 14.6843 17.8004 14.5984 18.2014 14.4265C18.6023 14.2547 18.9142 14.0065 19.137 13.6819C19.3661 13.3573 19.4806 12.9658 19.4806 12.5076C19.4806 11.8521 19.2483 11.3365 18.7837 10.961C18.3191 10.5855 17.6922 10.3978 16.903 10.3978H14.2108V14.6843Z" fill="#808080"/>
</svg>
