<svg width="152" height="152" viewBox="0 0 152 152" fill="none" xmlns="http://www.w3.org/2000/svg">
<rect width="150.882" height="150.882" transform="translate(0.984375 0.570557)" fill="#E7E7E7"/>
<path d="M88.3965 58.0512C88.3965 53.0918 92.4169 49.0714 97.3763 49.0714C102.336 49.0714 106.356 53.0918 106.356 58.0512C106.356 63.0105 102.336 67.0309 97.3763 67.0309C92.4169 67.0309 88.3965 63.0105 88.3965 58.0512Z" fill="#9E9E9E"/>
<path fill-rule="evenodd" clip-rule="evenodd" d="M48.0926 32.0611C66.9444 30.4223 85.9028 30.4223 104.755 32.0611L113.796 32.847C122.446 33.599 129.455 40.182 130.746 48.769C133.462 66.8286 133.462 85.1927 130.746 103.252C129.455 111.839 122.446 118.422 113.796 119.174L104.755 119.96C85.9028 121.599 66.9444 121.599 48.0926 119.96L39.0516 119.174C30.4007 118.422 23.3925 111.839 22.1012 103.252C19.3855 85.1927 19.3855 66.8286 22.1012 48.769C23.3925 40.182 30.4007 33.599 39.0516 32.847L48.0926 32.0611ZM103.977 41.0071C85.6426 39.4133 67.2046 39.4133 48.8703 41.0071L39.8293 41.793C35.3135 42.1856 31.6552 45.6219 30.9812 50.1043C29.4394 60.3569 28.818 70.7127 29.1171 81.0485L52.296 57.8696C53.1703 56.9952 54.3666 56.5201 55.6027 56.5565C56.8387 56.5928 58.005 57.1373 58.8266 58.0615L80.8056 82.788L95.9564 77.7377C97.6508 77.1729 99.5188 77.6661 100.714 78.9936L121.781 102.402C121.813 102.241 121.842 102.08 121.866 101.917C124.449 84.7426 124.449 67.2787 121.866 50.1043C121.192 45.6219 117.534 42.1856 113.018 41.793L103.977 41.0071ZM116.055 109.463L96.0062 87.1866L80.8366 92.2431C79.1327 92.8111 77.2542 92.309 76.061 90.9666L55.2785 67.5863L29.8737 92.9911C30.1657 95.973 30.5349 98.9493 30.9812 101.917C31.6552 106.399 35.3135 109.836 39.8293 110.228L48.8703 111.014C67.2046 112.608 85.6426 112.608 103.977 111.014L113.018 110.228C114.088 110.135 115.11 109.871 116.055 109.463Z" fill="#9E9E9E"/>
</svg>
