<svg width="35" height="34" viewBox="0 0 35 34" fill="none" xmlns="http://www.w3.org/2000/svg">
<path d="M19.975 12.9998C19.975 11.8953 20.8704 10.9998 21.975 10.9998C23.0796 10.9998 23.975 11.8953 23.975 12.9998C23.975 14.1044 23.0796 14.9998 21.975 14.9998C20.8704 14.9998 19.975 14.1044 19.975 12.9998Z" fill="#808080"/>
<path fill-rule="evenodd" clip-rule="evenodd" d="M10.9984 7.21124C15.1971 6.84625 19.4196 6.84625 23.6183 7.21124L25.632 7.38628C27.5587 7.55377 29.1196 9.01996 29.4072 10.9325C30.0121 14.9548 30.0121 19.0449 29.4072 23.0672C29.1196 24.9797 27.5587 26.4459 25.632 26.6134L23.6183 26.7884C19.4196 27.1534 15.1971 27.1534 10.9984 26.7884L8.98475 26.6134C7.05799 26.4459 5.4971 24.9797 5.2095 23.0672C4.60465 19.0449 4.60465 14.9548 5.2095 10.9325C5.4971 9.01997 7.05799 7.55377 8.98475 7.38628L10.9984 7.21124ZM23.4451 9.20373C19.3616 8.84876 15.2551 8.84876 11.1716 9.20373L9.15795 9.37877C8.15218 9.4662 7.33739 10.2316 7.18726 11.2299C6.84388 13.5134 6.70549 15.8199 6.77209 18.1219L11.9346 12.9594C12.1293 12.7647 12.3958 12.6588 12.6711 12.6669C12.9463 12.675 13.2061 12.7963 13.3891 13.0021L18.2843 18.5093L21.6588 17.3845C22.0362 17.2587 22.4522 17.3685 22.7183 17.6642L27.4105 22.8777C27.4177 22.8421 27.424 22.8061 27.4295 22.7698C28.0047 18.9446 28.0047 15.055 27.4295 11.2299C27.2793 10.2316 26.4645 9.4662 25.4588 9.37877L23.4451 9.20373ZM26.1352 24.4505L21.6699 19.489L18.2912 20.6152C17.9117 20.7417 17.4934 20.6299 17.2276 20.3309L12.5989 15.1235L6.94061 20.7818C7.00565 21.4459 7.08787 22.1088 7.18726 22.7698C7.33739 23.7681 8.15218 24.5335 9.15795 24.6209L11.1716 24.7959C15.2551 25.1509 19.3617 25.1509 23.4451 24.7959L25.4588 24.6209C25.6971 24.6002 25.9247 24.5414 26.1352 24.4505Z" fill="#808080"/>
</svg>
