<svg width="24" height="24" viewBox="0 0 24 24" fill="none" xmlns="http://www.w3.org/2000/svg">
<g clip-path="url(#clip0_3811_2814)">
<path d="M4.24902 10.4277V9.6416H3.46289V10.4277H4.24902ZM10.5381 10.4277V9.6416H9.75195V10.4277H10.5381ZM10.5381 16.7168H9.75195V17.5029H10.5381V16.7168ZM21.5439 5.71094H22.3301V5.38548L22.1005 5.15436L21.5439 5.71094ZM16.8271 0.994141L17.3837 0.437559L17.1526 0.208008H16.8271V0.994141ZM4.24902 11.2139H5.82129V9.6416H4.24902V11.2139ZM5.03516 17.5029V13.5723H3.46289V17.5029H5.03516ZM5.03516 13.5723V10.4277H3.46289V13.5723H5.03516ZM5.82129 12.7861H4.24902V14.3584H5.82129V12.7861ZM6.60742 12C6.60742 12.2085 6.5246 12.4085 6.37717 12.5559C6.22974 12.7033 6.02978 12.7861 5.82129 12.7861V14.3584C6.44678 14.3584 7.04664 14.1099 7.48893 13.6676C7.93121 13.2254 8.17969 12.6255 8.17969 12H6.60742ZM5.82129 11.2139C6.02978 11.2139 6.22974 11.2967 6.37717 11.4441C6.5246 11.5915 6.60742 11.7915 6.60742 12H8.17969C8.17969 11.3745 7.93121 10.7746 7.48893 10.3324C7.04664 9.89007 6.44678 9.6416 5.82129 9.6416V11.2139ZM9.75195 10.4277V16.7168H11.3242V10.4277H9.75195ZM10.5381 17.5029H12.1104V15.9307H10.5381V17.5029ZM14.4688 15.1445V12H12.8965V15.1445H14.4688ZM12.1104 9.6416H10.5381V11.2139H12.1104V9.6416ZM14.4688 12C14.4688 11.3745 14.2203 10.7746 13.778 10.3324C13.3357 9.89007 12.7358 9.6416 12.1104 9.6416V11.2139C12.3188 11.2139 12.5188 11.2967 12.6662 11.4441C12.8137 11.5915 12.8965 11.7915 12.8965 12H14.4688ZM12.1104 17.5029C12.7358 17.5029 13.3357 17.2545 13.778 16.8122C14.2203 16.3699 14.4688 15.77 14.4688 15.1445H12.8965C12.8965 15.353 12.8137 15.553 12.6662 15.7004C12.5188 15.8478 12.3188 15.9307 12.1104 15.9307V17.5029ZM16.041 9.6416V17.5029H17.6133V9.6416H16.041ZM16.8271 11.2139H20.7578V9.6416H16.8271V11.2139ZM16.8271 14.3584H19.1855V12.7861H16.8271V14.3584ZM3.46289 8.06934V2.56641H1.89062V8.06934H3.46289ZM20.7578 5.71094V8.06934H22.3301V5.71094H20.7578ZM4.24902 1.78027H16.8271V0.208008H4.24902V1.78027ZM16.2706 1.55072L20.9874 6.26752L22.1005 5.15436L17.3837 0.437559L16.2706 1.55072ZM3.46289 2.56641C3.46289 2.35791 3.54572 2.15795 3.69314 2.01053C3.84057 1.8631 4.04053 1.78027 4.24902 1.78027V0.208008C3.62354 0.208008 3.02367 0.456481 2.58138 0.898767C2.1391 1.34105 1.89063 1.94092 1.89062 2.56641H3.46289ZM1.89062 19.0752V21.4336H3.46289V19.0752H1.89062ZM4.24902 23.792H19.9717V22.2197H4.24902V23.792ZM22.3301 21.4336V19.0752H20.7578V21.4336H22.3301ZM19.9717 23.792C20.5972 23.792 21.197 23.5435 21.6393 23.1012C22.0816 22.6589 22.3301 22.0591 22.3301 21.4336H20.7578C20.7578 21.6421 20.675 21.842 20.5276 21.9895C20.3801 22.1369 20.1802 22.2197 19.9717 22.2197V23.792ZM1.89062 21.4336C1.89063 22.0591 2.1391 22.6589 2.58138 23.1012C3.02367 23.5435 3.62354 23.792 4.24902 23.792V22.2197C4.04053 22.2197 3.84057 22.1369 3.69314 21.9895C3.54572 21.842 3.46289 21.6421 3.46289 21.4336H1.89062Z" fill="black"/>
</g>
<defs>
<clipPath id="clip0_3811_2814">
<rect width="23.584" height="23.584" fill="white" transform="translate(0.318359 0.208008)"/>
</clipPath>
</defs>
</svg>
