<svg width="34" height="34" viewBox="0 0 34 34" fill="none" xmlns="http://www.w3.org/2000/svg">
<path fill-rule="evenodd" clip-rule="evenodd" d="M24.6204 6.646H22.2528V19.4006C22.2528 20.3552 22.0428 21.2049 21.6227 21.9496C21.209 22.6879 20.6108 23.2702 19.8279 23.6966C19.0451 24.1167 18.1095 24.3267 17.0212 24.3267C15.9328 24.3267 14.9972 24.1167 14.2144 23.6966C13.4379 23.2702 12.8396 22.6879 12.4196 21.9496C11.9995 21.2049 11.7895 20.3552 11.7895 19.4006V6.646H9.42188V19.5915C9.42188 20.9281 9.73375 22.1214 10.3575 23.1716C10.9876 24.2153 11.8722 25.0396 13.0115 25.6442C14.1507 26.2425 15.4873 26.5416 17.0212 26.5416C18.555 26.5416 19.8916 26.2425 21.0308 25.6442C22.1701 25.0396 23.0516 24.2153 23.6753 23.1716C24.3054 22.1214 24.6204 20.9281 24.6204 19.5915V6.646ZM7.01758 28.762H27.1805V27.6419H7.01758V28.762Z" fill="#808080"/>
</svg>
