<svg width="338" height="50" viewBox="0 0 338 50" fill="none" xmlns="http://www.w3.org/2000/svg">
<path d="M59.7061 28.5295V25.5448H64.2866C65.8627 25.5448 67.035 25.2394 67.8033 24.6287C68.5914 23.9982 68.9854 22.9639 68.9854 21.5257C68.9854 20.2451 68.6209 19.2798 67.892 18.6296C67.163 17.9795 66.0401 17.6544 64.5231 17.6544H59.7061V14.6992H64.6117C65.8726 14.6992 67.0054 14.847 68.0102 15.1425C69.015 15.438 69.872 15.8715 70.5812 16.4428C71.2905 17.0141 71.8322 17.7431 72.2066 18.6296C72.5809 19.4965 72.768 20.5013 72.768 21.6439C72.768 23.1412 72.4233 24.4021 71.7337 25.4266C71.0639 26.451 70.0591 27.2292 68.7194 27.7612C67.3994 28.2734 65.7544 28.5295 63.7843 28.5295H59.7061ZM57.2533 34.2035V14.6992H60.9768V34.2035H57.2533ZM75.8627 34.2035V13.2216H79.5271V34.2035H75.8627ZM90.5685 34.5877C89.0515 34.5877 87.7118 34.2823 86.5494 33.6716C85.387 33.0411 84.4709 32.125 83.8011 30.9232C83.1509 29.7017 82.8259 28.2045 82.8259 26.4313C82.8259 24.6188 83.1608 23.1215 83.8306 21.9394C84.5202 20.7377 85.4461 19.8413 86.6085 19.2502C87.7709 18.6592 89.081 18.3637 90.5389 18.3637C92.0559 18.3637 93.3956 18.669 94.558 19.2798C95.7203 19.8905 96.6364 20.8066 97.3063 22.0281C97.9761 23.2299 98.3111 24.7272 98.3111 26.52C98.3111 28.3325 97.9761 29.8397 97.3063 31.0414C96.6364 32.2432 95.7105 33.1396 94.5284 33.7307C93.366 34.302 92.0461 34.5877 90.5685 34.5877ZM90.7162 31.7507C91.5437 31.7507 92.2431 31.5635 92.8144 31.1892C93.3857 30.7952 93.8192 30.214 94.1147 29.4456C94.4299 28.6773 94.5875 27.7612 94.5875 26.6973C94.5875 25.5743 94.4201 24.6188 94.0851 23.8308C93.7699 23.023 93.3069 22.4024 92.6962 21.969C92.1052 21.5356 91.3565 21.3189 90.4502 21.3189C89.6622 21.3189 88.9727 21.5159 88.3816 21.9099C87.7906 22.2842 87.3374 22.8457 87.0222 23.5944C86.7267 24.343 86.5789 25.269 86.5789 26.3722C86.5789 28.1059 86.9434 29.4358 87.6724 30.3617C88.421 31.2877 89.4356 31.7507 90.7162 31.7507ZM107.252 39.4933C106.464 39.4933 105.666 39.4145 104.858 39.2569C104.05 39.0993 103.292 38.853 102.582 38.5181C101.893 38.2029 101.312 37.7891 100.839 37.2769L102.11 34.2035C102.681 34.8536 103.42 35.3462 104.326 35.6811C105.232 36.016 106.148 36.1835 107.074 36.1835C108.158 36.1835 109.054 35.9569 109.764 35.5038C110.473 35.0703 111.015 34.3907 111.389 33.4647C111.763 32.5387 111.97 31.3862 112.01 30.0071L112.216 27.1997H111.596C111.399 28.5394 111.074 29.6328 110.621 30.48C110.167 31.3074 109.596 31.9181 108.907 32.3122C108.237 32.6865 107.449 32.8737 106.542 32.8737C105.419 32.8737 104.474 32.588 103.705 32.0166C102.937 31.4453 102.356 30.5982 101.962 29.4752C101.588 28.3522 101.4 26.9633 101.4 25.3084V18.7478H105.153V24.4514C105.153 26.3033 105.38 27.6528 105.833 28.5C106.286 29.3274 106.976 29.7412 107.902 29.7412C108.394 29.7412 108.847 29.6131 109.261 29.357C109.675 29.0812 110.02 28.697 110.296 28.2045C110.591 27.6922 110.818 27.0618 110.975 26.3131C111.153 25.5645 111.251 24.7075 111.271 23.7421V18.7478H115.024V30.1549C115.024 31.3961 114.915 32.519 114.699 33.5238C114.502 34.5089 114.196 35.3659 113.783 36.0948C113.369 36.8435 112.847 37.4739 112.216 37.9861C111.606 38.4984 110.887 38.8727 110.059 39.1091C109.232 39.3652 108.296 39.4933 107.252 39.4933ZM130.508 34.2035V14.6992H134.261V34.2035H130.508ZM124.716 17.8613V14.6992H140.083V17.8613H124.716ZM147.684 34.5877C146.443 34.5877 145.329 34.4104 144.344 34.0557C143.379 33.7011 142.561 33.1889 141.892 32.519C141.222 31.8295 140.71 31.002 140.355 30.0367C140 29.0713 139.823 27.9779 139.823 26.7564C139.823 25.5349 139.99 24.412 140.325 23.3875C140.68 22.363 141.182 21.4765 141.832 20.7278C142.483 19.9792 143.271 19.398 144.197 18.9843C145.142 18.5705 146.216 18.3637 147.418 18.3637C148.541 18.3637 149.546 18.5508 150.432 18.9252C151.319 19.2995 152.067 19.861 152.678 20.6096C153.289 21.3386 153.742 22.2547 154.037 23.3579C154.333 24.4415 154.431 25.7024 154.333 27.1406L142.246 27.2292V25.0719L152.176 24.9833L150.875 26.1949C150.994 25.0719 150.905 24.1558 150.609 23.4466C150.314 22.7176 149.89 22.1857 149.339 21.8508C148.787 21.4962 148.157 21.3189 147.447 21.3189C146.64 21.3189 145.93 21.5356 145.32 21.969C144.709 22.3827 144.236 22.9935 143.901 23.8012C143.586 24.5893 143.428 25.5546 143.428 26.6973C143.428 28.4113 143.803 29.6919 144.551 30.5391C145.32 31.3862 146.364 31.8098 147.684 31.8098C148.275 31.8098 148.767 31.7408 149.161 31.6029C149.575 31.4453 149.92 31.2483 150.196 31.0119C150.471 30.7558 150.688 30.4701 150.846 30.1549C151.023 29.8397 151.161 29.5047 151.26 29.1501L154.51 29.8889C154.353 30.6179 154.097 31.268 153.742 31.8393C153.387 32.4107 152.924 32.9032 152.353 33.3169C151.801 33.7307 151.141 34.0459 150.373 34.2626C149.605 34.4793 148.708 34.5877 147.684 34.5877ZM164.797 34.5877C163.457 34.5877 162.295 34.3907 161.309 33.9966C160.344 33.6026 159.536 33.051 158.886 32.3417C158.256 31.6128 157.783 30.7656 157.468 29.8003C157.153 28.8349 156.995 27.7907 156.995 26.6678C156.995 25.466 157.153 24.3627 157.468 23.3579C157.803 22.3532 158.295 21.4765 158.945 20.7278C159.595 19.9792 160.393 19.398 161.339 18.9843C162.304 18.5705 163.408 18.3637 164.649 18.3637C165.89 18.3637 166.964 18.5705 167.87 18.9843C168.796 19.398 169.545 19.9792 170.116 20.7278C170.687 21.4568 171.071 22.3138 171.268 23.2988L167.781 24.3923C167.742 23.8012 167.584 23.2791 167.309 22.826C167.033 22.3532 166.658 21.9887 166.186 21.7326C165.713 21.4765 165.151 21.3484 164.501 21.3484C163.871 21.3484 163.319 21.4765 162.846 21.7326C162.393 21.969 162.009 22.3138 161.694 22.7669C161.398 23.22 161.162 23.7717 160.984 24.4218C160.827 25.0522 160.748 25.7615 160.748 26.5495C160.748 27.6331 160.896 28.5591 161.191 29.3274C161.487 30.0958 161.94 30.6967 162.551 31.1301C163.161 31.5438 163.92 31.7507 164.826 31.7507C165.634 31.7507 166.284 31.6029 166.777 31.3074C167.289 30.9922 167.673 30.5883 167.929 30.0958C168.205 29.6032 168.372 29.0615 168.432 28.4704L171.741 29.2092C171.623 30.017 171.397 30.7459 171.062 31.3961C170.727 32.0462 170.264 32.6175 169.673 33.1101C169.101 33.5829 168.412 33.9474 167.604 34.2035C166.796 34.4596 165.86 34.5877 164.797 34.5877ZM174.388 34.2035V24.5991V13.2216H178.141V18.0386C178.141 18.4523 178.122 18.8759 178.082 19.3093C178.063 19.7428 178.023 20.186 177.964 20.6392C177.905 21.0923 177.836 21.5454 177.757 21.9986C177.698 22.4517 177.629 22.9048 177.55 23.3579H178.171C178.447 22.2941 178.801 21.3977 179.235 20.6687C179.668 19.9201 180.22 19.3487 180.89 18.9547C181.579 18.5607 182.417 18.3637 183.402 18.3637C185.194 18.3637 186.534 18.9941 187.421 20.255C188.307 21.4962 188.751 23.3875 188.751 25.929V34.2035H184.997V26.4609C184.997 24.7666 184.741 23.5155 184.229 22.7078C183.737 21.9 182.988 21.4962 181.983 21.4962C181.156 21.4962 180.466 21.7523 179.915 22.2645C179.363 22.7571 178.939 23.417 178.644 24.2445C178.348 25.0719 178.171 26.0078 178.112 27.0519V34.2035H174.388ZM208.622 34.5877C207.144 34.5877 205.824 34.3808 204.662 33.9671C203.5 33.5336 202.514 32.9032 201.707 32.0758C200.899 31.2286 200.278 30.1844 199.845 28.9433C199.412 27.7021 199.195 26.2836 199.195 24.6878C199.195 23.0329 199.412 21.5651 199.845 20.2845C200.298 19.004 200.929 17.9204 201.736 17.0338C202.544 16.1276 203.509 15.4479 204.632 14.9947C205.755 14.5416 207.006 14.3151 208.385 14.3151C209.449 14.3151 210.434 14.453 211.341 14.7288C212.247 15.0046 213.025 15.4183 213.675 15.97C214.345 16.5019 214.867 17.152 215.242 17.9204C215.616 18.669 215.813 19.526 215.833 20.4914L212.345 21.4075C212.365 20.521 212.178 19.7822 211.784 19.1911C211.39 18.6001 210.878 18.1568 210.247 17.8613C209.636 17.5658 208.977 17.418 208.267 17.418C207.637 17.418 207.006 17.5461 206.376 17.8022C205.765 18.0583 205.214 18.4622 204.721 19.0138C204.228 19.5654 203.834 20.2944 203.539 21.2006C203.243 22.0872 203.096 23.1806 203.096 24.4809C203.096 26.1358 203.332 27.4755 203.805 28.5C204.297 29.5244 204.967 30.2829 205.814 30.7755C206.681 31.2483 207.657 31.4847 208.74 31.4847C209.843 31.4847 210.72 31.268 211.37 30.8346C212.02 30.3814 212.493 29.7904 212.789 29.0615C213.084 28.3128 213.252 27.5051 213.291 26.6382L216.571 27.1997C216.552 28.2242 216.394 29.1895 216.099 30.0958C215.803 31.002 215.34 31.7901 214.71 32.4599C214.099 33.1298 213.291 33.6519 212.286 34.0262C211.282 34.4005 210.06 34.5877 208.622 34.5877ZM226.525 34.5877C225.008 34.5877 223.668 34.2823 222.506 33.6716C221.343 33.0411 220.427 32.125 219.757 30.9232C219.107 29.7017 218.782 28.2045 218.782 26.4313C218.782 24.6188 219.117 23.1215 219.787 21.9394C220.476 20.7377 221.402 19.8413 222.565 19.2502C223.727 18.6592 225.037 18.3637 226.495 18.3637C228.012 18.3637 229.352 18.669 230.514 19.2798C231.676 19.8905 232.593 20.8066 233.262 22.0281C233.932 23.2299 234.267 24.7272 234.267 26.52C234.267 28.3325 233.932 29.8397 233.262 31.0414C232.593 32.2432 231.667 33.1396 230.485 33.7307C229.322 34.302 228.002 34.5877 226.525 34.5877ZM226.672 31.7507C227.5 31.7507 228.199 31.5635 228.771 31.1892C229.342 30.7952 229.775 30.214 230.071 29.4456C230.386 28.6773 230.544 27.7612 230.544 26.6973C230.544 25.5743 230.376 24.6188 230.041 23.8308C229.726 23.023 229.263 22.4024 228.652 21.969C228.061 21.5356 227.313 21.3189 226.406 21.3189C225.618 21.3189 224.929 21.5159 224.338 21.9099C223.747 22.2842 223.294 22.8457 222.978 23.5944C222.683 24.343 222.535 25.269 222.535 26.3722C222.535 28.1059 222.9 29.4358 223.628 30.3617C224.377 31.2877 225.392 31.7507 226.672 31.7507ZM242.731 34.5877C240.958 34.5877 239.619 33.9868 238.712 32.785C237.826 31.5635 237.383 29.7215 237.383 27.2588V18.7478H241.136V26.8451C241.136 28.4015 241.372 29.5638 241.845 30.3322C242.318 31.1005 243.047 31.4847 244.032 31.4847C244.603 31.4847 245.105 31.3468 245.539 31.071C245.972 30.7755 246.347 30.3716 246.662 29.8594C246.977 29.3274 247.223 28.7167 247.401 28.0271C247.598 27.3376 247.716 26.5791 247.755 25.7516V18.7478H251.479V27.8498V34.2035H248.405L248.465 29.3274H247.933C247.676 30.5686 247.312 31.5734 246.839 32.3417C246.386 33.1101 245.825 33.6814 245.155 34.0557C244.485 34.4104 243.677 34.5877 242.731 34.5877ZM255.685 34.2035V26.4609V18.7478H258.817L258.758 24.0672H259.29C259.468 22.8063 259.743 21.7621 260.118 20.9347C260.492 20.0875 261.014 19.4571 261.684 19.0434C262.354 18.6099 263.181 18.3932 264.166 18.3932C264.363 18.3932 264.57 18.4031 264.787 18.4228C265.023 18.4425 265.279 18.4917 265.555 18.5705L265.407 22.5009C265.092 22.3827 264.767 22.3039 264.432 22.2645C264.117 22.2054 263.822 22.1759 263.546 22.1759C262.777 22.1759 262.108 22.3729 261.536 22.7669C260.985 23.1609 260.531 23.7224 260.177 24.4514C259.842 25.1606 259.586 26.0078 259.408 26.9928V34.2035H255.685ZM274.122 34.5877C273.078 34.5877 272.132 34.4793 271.285 34.2626C270.458 34.0656 269.749 33.7799 269.158 33.4056C268.567 33.0116 268.094 32.5486 267.739 32.0166C267.384 31.465 267.168 30.8543 267.089 30.1844L270.015 29.091C270.054 29.6032 270.251 30.0662 270.606 30.48C270.96 30.874 271.453 31.1892 272.083 31.4256C272.714 31.662 273.472 31.7802 274.359 31.7802C275.344 31.7802 276.102 31.6325 276.634 31.337C277.186 31.0217 277.462 30.5785 277.462 30.0071C277.462 29.5934 277.314 29.2683 277.018 29.0319C276.723 28.7758 276.289 28.5689 275.718 28.4113C275.166 28.234 274.497 28.0665 273.709 27.9089C272.98 27.7513 272.241 27.574 271.492 27.377C270.763 27.1603 270.084 26.8845 269.453 26.5495C268.842 26.1949 268.34 25.7418 267.946 25.1902C267.572 24.6188 267.384 23.8997 267.384 23.0329C267.384 22.0872 267.631 21.2696 268.123 20.5801C268.636 19.8905 269.364 19.3487 270.31 18.9547C271.275 18.5607 272.438 18.3637 273.797 18.3637C275.078 18.3637 276.181 18.541 277.107 18.8956C278.053 19.2502 278.821 19.7625 279.412 20.4323C280.003 21.0824 280.377 21.8606 280.535 22.7669L277.462 23.7421C277.403 23.1905 277.215 22.7275 276.9 22.3532C276.585 21.9591 276.161 21.6636 275.629 21.4666C275.098 21.2696 274.477 21.1711 273.768 21.1711C272.861 21.1711 272.152 21.3287 271.64 21.6439C271.128 21.9591 270.872 22.3827 270.872 22.9147C270.872 23.3481 271.029 23.6929 271.344 23.949C271.679 24.2051 272.132 24.412 272.704 24.5696C273.295 24.7272 273.965 24.8848 274.713 25.0424C275.501 25.2 276.26 25.3872 276.989 25.6039C277.737 25.8009 278.407 26.0669 278.998 26.4018C279.589 26.7367 280.062 27.18 280.417 27.7316C280.771 28.2636 280.949 28.9531 280.949 29.8003C280.949 30.8247 280.673 31.7014 280.121 32.4304C279.57 33.1396 278.782 33.6814 277.757 34.0557C276.752 34.4104 275.541 34.5877 274.122 34.5877ZM291.143 34.5877C289.902 34.5877 288.789 34.4104 287.804 34.0557C286.839 33.7011 286.021 33.1889 285.351 32.519C284.681 31.8295 284.169 31.002 283.814 30.0367C283.46 29.0713 283.282 27.9779 283.282 26.7564C283.282 25.5349 283.45 24.412 283.785 23.3875C284.139 22.363 284.642 21.4765 285.292 20.7278C285.942 19.9792 286.73 19.398 287.656 18.9843C288.602 18.5705 289.676 18.3637 290.877 18.3637C292 18.3637 293.005 18.5508 293.892 18.9252C294.778 19.2995 295.527 19.861 296.138 20.6096C296.748 21.3386 297.201 22.2547 297.497 23.3579C297.792 24.4415 297.891 25.7024 297.792 27.1406L285.706 27.2292V25.0719L295.635 24.9833L294.335 26.1949C294.453 25.0719 294.364 24.1558 294.069 23.4466C293.773 22.7176 293.35 22.1857 292.798 21.8508C292.247 21.4962 291.616 21.3189 290.907 21.3189C290.099 21.3189 289.39 21.5356 288.779 21.969C288.168 22.3827 287.696 22.9935 287.361 23.8012C287.045 24.5893 286.888 25.5546 286.888 26.6973C286.888 28.4113 287.262 29.6919 288.011 30.5391C288.779 31.3862 289.823 31.8098 291.143 31.8098C291.734 31.8098 292.227 31.7408 292.621 31.6029C293.035 31.4453 293.379 31.2483 293.655 31.0119C293.931 30.7558 294.148 30.4701 294.305 30.1549C294.483 29.8397 294.621 29.5047 294.719 29.1501L297.97 29.8889C297.812 30.6179 297.556 31.268 297.201 31.8393C296.847 32.4107 296.384 32.9032 295.812 33.3169C295.261 33.7307 294.601 34.0459 293.833 34.2626C293.064 34.4793 292.168 34.5877 291.143 34.5877Z" fill="#B4B4B4"/>
<path d="M24.894 29.6957L36.111 38.1613" stroke="#B4B4B4" stroke-width="1.85"/>
<path d="M21.9312 19.9602L23.6243 15.5157" stroke="#B4B4B4" stroke-width="1.85"/>
<path d="M13.0425 16.1508L16.4287 21.0185" stroke="#B4B4B4" stroke-width="1.85"/>
<circle cx="19.6031" cy="26.0978" r="5.84749" stroke="#B4B4B4" stroke-width="1.85"/>
<path d="M25.3174 24.4047L35.2645 20.3835" stroke="#B4B4B4" stroke-width="1.85"/>
<circle cx="39.4973" cy="19.1137" r="4.15437" stroke="#B4B4B4" stroke-width="1.85"/>
<circle cx="25.1057" cy="11.283" r="4.15437" stroke="#B4B4B4" stroke-width="1.85"/>
<circle cx="10.291" cy="11.7063" r="4.366" stroke="#B4B4B4" stroke-width="1.85"/>
<circle cx="39.709" cy="40.9126" r="4.366" stroke="#B4B4B4" stroke-width="1.85"/>
<circle cx="10.5024" cy="39.4311" r="4.366" stroke="#B4B4B4" stroke-width="1.85"/>
<path d="M12.8306 35.6216L16.2168 31.3888" stroke="#B4B4B4" stroke-width="1.85"/>
<path d="M37 18.4735L38.9048 20.1666L41.8677 17.2036" stroke="#B4B4B4"/>
<path d="M37 40.4893L38.9565 42.2036L42 39.2036" stroke="#B4B4B4" stroke-width="1.85"/>
<path d="M8.1748 39.2195L10.0796 40.9127L13.0425 37.9497" stroke="#B4B4B4" stroke-width="1.85"/>
</svg>
