<svg width="700" height="700" viewBox="0 0 700 700" fill="none" xmlns="http://www.w3.org/2000/svg">
<path d="M348.154 411.109L544.452 559.256" stroke="#96ADFD" stroke-width="32.375"/>
<path d="M296.308 240.739L325.938 162.962" stroke="#96ADFD" stroke-width="32.375"/>
<path d="M140.731 174.075L199.991 259.259" stroke="#96ADFD" stroke-width="32.375"/>
<path d="M357.891 348.148C357.891 404.664 312.076 450.479 255.559 450.479C199.043 450.479 153.228 404.664 153.228 348.148C153.228 291.633 199.043 245.818 255.559 245.818C312.076 245.818 357.891 291.633 357.891 348.148Z" stroke="#96ADFD" stroke-width="32.375"/>
<path d="M355.56 318.512L529.635 248.142" stroke="#96ADFD" stroke-width="32.375"/>
<path d="M676.406 225.926C676.406 266.077 643.856 298.627 603.704 298.627C563.552 298.627 531.002 266.077 531.002 225.926C531.002 185.775 563.552 153.225 603.704 153.225C643.856 153.225 676.406 185.775 676.406 225.926Z" stroke="#96ADFD" stroke-width="32.375"/>
<path d="M424.552 88.8884C424.552 129.04 392.002 161.589 351.85 161.589C311.698 161.589 279.148 129.04 279.148 88.8884C279.148 48.737 311.698 16.1875 351.85 16.1875C392.002 16.1875 424.552 48.737 424.552 88.8884Z" stroke="#96ADFD" stroke-width="32.375"/>
<path d="M168.999 96.2947C168.999 138.492 134.791 172.699 92.5932 172.699C50.3953 172.699 16.1875 138.492 16.1875 96.2947C16.1875 54.0978 50.3953 19.8902 92.5932 19.8902C134.791 19.8902 168.999 54.0978 168.999 96.2947Z" stroke="#96ADFD" stroke-width="32.375"/>
<path d="M683.813 607.409C683.813 649.606 649.606 683.814 607.408 683.814C565.21 683.814 531.002 649.606 531.002 607.409C531.002 565.212 565.21 531.004 607.408 531.004C649.606 531.004 683.813 565.212 683.813 607.409Z" stroke="#96ADFD" stroke-width="32.375"/>
<path d="M172.702 581.478C172.702 623.675 138.494 657.882 96.2959 657.882C54.098 657.882 19.8902 623.675 19.8902 581.478C19.8902 539.281 54.098 505.073 96.2959 505.073C138.494 505.073 172.702 539.281 172.702 581.478Z" stroke="#96ADFD" stroke-width="32.375"/>
<path d="M137.04 514.81L196.3 440.736" stroke="#96ADFD" stroke-width="32.375"/>
<path d="M311.106 81.4853L344.44 111.115L396.292 59.2632" stroke="#96ADFD" stroke-width="28.4264"/>
<path d="M559.266 222.226L592.6 251.855L644.452 200.003" stroke="#96ADFD" stroke-width="32.375"/>
<path d="M55.5601 577.774L88.8936 607.404L140.746 555.552" stroke="#96ADFD" stroke-width="32.375"/>
</svg>
