<svg width="32" height="32" viewBox="0 0 32 32" fill="none" xmlns="http://www.w3.org/2000/svg">
<path d="M12 20.3334H24.6667C25.403 20.3334 26 19.7365 26 19.0001V5.00008C26 4.2637 25.403 3.66675 24.6667 3.66675H12V20.3334Z" fill="black"/>
<path d="M10.6667 3.66675H10C7.79086 3.66675 6 5.45761 6 7.66675V24.3334C6 22.1243 7.79086 20.3334 10 20.3334H10.6667V3.66675Z" fill="black"/>
<path fill-rule="evenodd" clip-rule="evenodd" d="M5 7.66675C5 4.90533 7.23858 2.66675 10 2.66675H24.6667C25.9553 2.66675 27 3.71142 27 5.00008V19.0001C27 20.2887 25.9553 21.3334 24.6667 21.3334H10C8.34315 21.3334 7 22.6766 7 24.3334C7 25.9903 8.34315 27.3334 10 27.3334H26C26.5523 27.3334 27 27.7811 27 28.3334C27 28.8857 26.5523 29.3334 26 29.3334H10C7.23858 29.3334 5 27.0948 5 24.3334V7.66675ZM7 20.333C7.83566 19.7054 8.87439 19.3334 10 19.3334H24.6667C24.8508 19.3334 25 19.1842 25 19.0001V5.00008C25 4.81599 24.8508 4.66675 24.6667 4.66675H10C8.34315 4.66675 7 6.00989 7 7.66675V20.333Z" fill="black"/>
<path fill-rule="evenodd" clip-rule="evenodd" d="M24.334 19.3333C24.8863 19.3333 25.334 19.781 25.334 20.3333V28.3333C25.334 28.8855 24.8863 29.3333 24.334 29.3333C23.7817 29.3333 23.334 28.8855 23.334 28.3333V20.3333C23.334 19.781 23.7817 19.3333 24.334 19.3333Z" fill="black"/>
</svg>
