<svg width="50" height="51" viewBox="0 0 50 51" fill="none" xmlns="http://www.w3.org/2000/svg">
<path d="M5.729 23.3347C5.729 19.6524 8.90095 16.7768 12.5832 16.7874C14.472 16.7928 16.4524 16.7165 18.0988 16.4713C24.4842 15.52 32.3436 11.058 36.7313 8.29143C38.1654 7.38726 40.104 8.41154 40.104 10.1068V40.5441C40.104 42.2393 38.1654 43.2636 36.7313 42.3595C32.3436 39.5929 24.4842 35.1309 18.0988 34.1796C16.4524 33.9343 14.472 33.8581 12.5832 33.8635C8.90094 33.8741 5.729 30.9984 5.729 27.3162V23.3347Z" stroke="#4970FB" stroke-width="3" stroke-linecap="round"/>
<path d="M10.4165 33.6592V40.43C10.4165 42.7312 12.282 44.5967 14.5832 44.5967C16.8844 44.5967 18.7498 42.7312 18.7498 40.43V34.7008" stroke="#4970FB" stroke-width="3" stroke-linecap="round"/>
<path d="M20.8335 16.4717V34.7008" stroke="#4970FB" stroke-width="3" stroke-linecap="round"/>
<path d="M40.104 29.4925C42.4052 29.4925 44.2707 27.627 44.2707 25.3258C44.2707 23.0247 42.4052 21.1592 40.104 21.1592" stroke="#4970FB" stroke-width="3" stroke-linecap="round"/>
</svg>
