<svg width="700" height="700" viewBox="0 0 700 700" fill="none" xmlns="http://www.w3.org/2000/svg">
<path d="M348.155 411.11L544.452 559.257" stroke="#96ADFD" stroke-width="32.375"/>
<path d="M296.307 240.739L325.937 162.962" stroke="#96ADFD" stroke-width="32.375"/>
<path d="M140.731 174.075L199.991 259.26" stroke="#96ADFD" stroke-width="32.375"/>
<path d="M357.891 348.148C357.891 404.664 312.076 450.479 255.559 450.479C199.043 450.479 153.228 404.664 153.228 348.148C153.228 291.633 199.043 245.818 255.559 245.818C312.076 245.818 357.891 291.633 357.891 348.148Z" stroke="#96ADFD" stroke-width="32.375"/>
<path d="M355.56 318.513L529.635 248.143" stroke="#96ADFD" stroke-width="32.375"/>
<path d="M676.405 225.927C676.405 266.078 643.855 298.628 603.703 298.628C563.551 298.628 531.001 266.078 531.001 225.927C531.001 185.776 563.551 153.226 603.703 153.226C643.855 153.226 676.405 185.776 676.405 225.927Z" stroke="#96ADFD" stroke-width="32.375"/>
<path d="M424.552 88.8884C424.552 129.04 392.003 161.589 351.85 161.589C311.698 161.589 279.148 129.04 279.148 88.8884C279.148 48.737 311.698 16.1875 351.85 16.1875C392.003 16.1875 424.552 48.737 424.552 88.8884Z" stroke="#96ADFD" stroke-width="32.375"/>
<path d="M168.999 96.2947C168.999 138.492 134.791 172.699 92.5932 172.699C50.3953 172.699 16.1875 138.492 16.1875 96.2947C16.1875 54.0978 50.3953 19.8901 92.5932 19.8901C134.791 19.8901 168.999 54.0978 168.999 96.2947Z" stroke="#96ADFD" stroke-width="32.375"/>
<path d="M683.812 607.408C683.812 649.605 649.605 683.813 607.407 683.813C565.209 683.813 531.001 649.605 531.001 607.408C531.001 565.211 565.209 531.003 607.407 531.003C649.605 531.003 683.812 565.211 683.812 607.408Z" stroke="#96ADFD" stroke-width="32.375"/>
<path d="M172.702 581.477C172.702 623.674 138.494 657.882 96.2959 657.882C54.098 657.882 19.8901 623.674 19.8901 581.477C19.8901 539.28 54.098 505.073 96.2959 505.073C138.494 505.073 172.702 539.28 172.702 581.477Z" stroke="#96ADFD" stroke-width="32.375"/>
<path d="M137.04 514.809L196.3 440.735" stroke="#96ADFD" stroke-width="32.375"/>
<path d="M311.106 81.4853L344.44 111.115L396.292 59.2632" stroke="#96ADFD" stroke-width="28.4264"/>
<path d="M559.269 222.226L592.602 251.856L644.454 200.004" stroke="#96ADFD" stroke-width="32.375"/>
<path d="M55.5615 577.776L88.8951 607.405L140.747 555.554" stroke="#96ADFD" stroke-width="32.375"/>
</svg>
