<svg width="24" height="24" viewBox="0 0 24 24" fill="none" xmlns="http://www.w3.org/2000/svg">
<rect x="0.914605" y="1.03961" width="21.9904" height="21.9904" rx="10.9952" fill="white"/>
<rect x="0.914605" y="1.03961" width="21.9904" height="21.9904" rx="10.9952" stroke="#4970FB" stroke-width="0.467882"/>
<path d="M10.3941 10.6016C10.086 11.3569 9.88319 12.1368 9.88319 12.8816V15.5922C9.88319 16.2813 10.4419 16.8399 11.131 16.8399L8.01166 16.84C6.97805 16.84 6.14014 16.0021 6.14014 14.9685V12.4731C6.14014 11.4395 6.97805 10.6016 8.01166 10.6016H10.3941Z" stroke="#4970FB" stroke-width="0.467882" stroke-linecap="round"/>
<path d="M15.6538 15.2803H16.1217C16.5524 15.2803 16.9015 15.6294 16.9015 16.0601C16.9015 16.4908 16.5524 16.8399 16.1217 16.8399L11.1311 16.8402C10.442 16.8403 9.8833 16.2817 9.8833 15.5925V12.8819C9.8833 10.4902 11.9748 7.73593 12.927 6.59683C13.1925 6.27929 13.6429 6.20655 14.0035 6.40966C14.3699 6.61601 14.5442 7.04882 14.4231 7.45148L13.4704 10.602" stroke="#4970FB" stroke-width="0.467882" stroke-linecap="round"/>
<path d="M16.2777 13.7202H16.7455C17.1762 13.7202 17.5253 14.0693 17.5253 14.5C17.5253 14.9307 17.1762 15.2798 16.7455 15.2798H15.6538" stroke="#4970FB" stroke-width="0.467882" stroke-linecap="round"/>
<path d="M15.6538 12.1611H16.9015C17.3322 12.1611 17.6813 12.5103 17.6813 12.9409C17.6813 13.3716 17.3322 13.7207 16.9015 13.7207H16.4336" stroke="#4970FB" stroke-width="0.467882" stroke-linecap="round"/>
<path d="M13.4707 10.6011H16.122C16.5527 10.6011 16.9018 10.9502 16.9018 11.3809C16.9018 11.8116 16.5527 12.1607 16.122 12.1607H15.6542" stroke="#4970FB" stroke-width="0.467882" stroke-linecap="round"/>
</svg>
