<svg width="55" height="55" viewBox="0 0 55 55" fill="none" xmlns="http://www.w3.org/2000/svg">
<rect x="1.22949" y="1" width="52.5417" height="52.5417" rx="26.2708" fill="white"/>
<rect x="1.22949" y="1" width="52.5417" height="52.5417" rx="26.2708" stroke="#4970FB" stroke-width="2"/>
<path d="M23.8163 23.79C23.0682 25.6245 22.5756 27.5186 22.5756 29.3273V35.9102C22.5756 37.5837 23.9324 38.9404 25.6059 38.9403L18.0305 38.9405C15.5203 38.9405 13.4854 36.9056 13.4854 34.3954V28.3352C13.4854 25.825 15.5203 23.79 18.0305 23.79H23.8163Z" stroke="#4970FB" stroke-width="2" stroke-linecap="round"/>
<path d="M36.5894 35.1517H37.7257C38.7716 35.1517 39.6195 35.9996 39.6195 37.0456C39.6195 38.0915 38.7716 38.9394 37.7257 38.9394L25.6055 38.9402C23.9319 38.9403 22.5752 37.5836 22.5752 35.9101V29.3272C22.5752 23.5187 27.6546 16.8298 29.9671 14.0633C30.6118 13.2922 31.7057 13.1155 32.5815 13.6088C33.4712 14.1099 33.8945 15.1611 33.6003 16.1389L31.2867 23.7901" stroke="#4970FB" stroke-width="2" stroke-linecap="round"/>
<path d="M38.1049 31.3638H39.2412C40.2871 31.3638 41.135 32.2117 41.135 33.2576C41.135 34.3035 40.2871 35.1514 39.2412 35.1514H36.5898" stroke="#4970FB" stroke-width="2" stroke-linecap="round"/>
<path d="M36.5898 27.5767H39.6199C40.6659 27.5767 41.5137 28.4245 41.5137 29.4705C41.5137 30.5164 40.6659 31.3643 39.6199 31.3643H38.4837" stroke="#4970FB" stroke-width="2" stroke-linecap="round"/>
<path d="M31.2881 23.7891H37.727C38.773 23.7891 39.6208 24.6369 39.6208 25.6829C39.6208 26.7288 38.773 27.5767 37.727 27.5767H36.5907" stroke="#4970FB" stroke-width="2" stroke-linecap="round"/>
</svg>
