<svg width="20" height="20" viewBox="0 0 20 20" fill="none" xmlns="http://www.w3.org/2000/svg">
<path d="M7.88021 8.60791C7.47355 9.60506 7.20582 10.6346 7.20582 11.6178V15.196C7.20582 16.1057 7.94331 16.8431 8.853 16.8431L4.73524 16.8432C3.37077 16.8432 2.26465 15.7371 2.26465 14.3726V11.0785C2.26465 9.71403 3.37077 8.60791 4.73524 8.60791H7.88021Z" stroke="black" stroke-width="1.23529" stroke-linecap="round"/>
<path d="M14.8227 14.7838H15.4404C16.0089 14.7838 16.4698 15.2447 16.4698 15.8132C16.4698 16.3817 16.0089 16.8426 15.4404 16.8426L8.85225 16.8431C7.94256 16.8431 7.20508 16.1057 7.20508 15.196V11.6178C7.20508 8.46046 9.96609 4.82456 11.2231 3.32084C11.5735 2.90166 12.1681 2.80564 12.6442 3.07376C13.1278 3.34616 13.3579 3.91751 13.198 4.44906L11.9404 8.60797" stroke="black" stroke-width="1.23529" stroke-linecap="round"/>
<path d="M15.6468 12.7249H16.2644C16.8329 12.7249 17.2938 13.1857 17.2938 13.7543C17.2938 14.3228 16.8329 14.7837 16.2644 14.7837H14.8232" stroke="black" stroke-width="1.23529" stroke-linecap="round"/>
<path d="M14.8232 10.6663H16.4703C17.0388 10.6663 17.4997 11.1271 17.4997 11.6957C17.4997 12.2642 17.0388 12.7251 16.4703 12.7251H15.8527" stroke="black" stroke-width="1.23529" stroke-linecap="round"/>
<path d="M11.9414 8.60718H15.4414C16.0099 8.60718 16.4708 9.06806 16.4708 9.63659C16.4708 10.2051 16.0099 10.666 15.4414 10.666H14.8238" stroke="black" stroke-width="1.23529" stroke-linecap="round"/>
</svg>
