<svg width="360" height="53" viewBox="0 0 360 53" fill="none" xmlns="http://www.w3.org/2000/svg">
<path d="M63.592 30.0021V26.8231H68.4706C70.1493 26.8231 71.3979 26.4979 72.2162 25.8474C73.0556 25.1759 73.4752 24.0743 73.4752 22.5425C73.4752 21.1785 73.087 20.1503 72.3106 19.4579C71.5343 18.7654 70.3382 18.4192 68.7224 18.4192H63.592V15.2716H68.8169C70.1598 15.2716 71.3664 15.429 72.4365 15.7438C73.5067 16.0585 74.4195 16.5202 75.1749 17.1287C75.9303 17.7372 76.5074 18.5136 76.9061 19.4579C77.3047 20.3811 77.5041 21.4513 77.5041 22.6684C77.5041 24.2631 77.1369 25.6061 76.4024 26.6972C75.689 27.7884 74.6188 28.6172 73.192 29.1838C71.7861 29.7293 70.0339 30.0021 67.9356 30.0021H63.592ZM60.9795 36.0454V15.2716H64.9454V36.0454H60.9795ZM80.8002 36.0454V13.6979H84.7031V36.0454H80.8002ZM96.4631 36.4546C94.8474 36.4546 93.4205 36.1293 92.1824 35.4789C90.9444 34.8074 89.9687 33.8316 89.2552 32.5516C88.5628 31.2507 88.2165 29.6559 88.2165 27.7674C88.2165 25.8369 88.5733 24.2421 89.2867 22.9831C90.0211 21.7031 91.0074 20.7484 92.2454 20.1189C93.4834 19.4893 94.8788 19.1746 96.4316 19.1746C98.0474 19.1746 99.4742 19.4998 100.712 20.1503C101.95 20.8008 102.926 21.7766 103.639 23.0775C104.353 24.3575 104.71 25.9523 104.71 27.8618C104.71 29.7923 104.353 31.3975 103.639 32.6775C102.926 33.9575 101.94 34.9123 100.681 35.5418C99.4428 36.1503 98.0369 36.4546 96.4631 36.4546ZM96.6205 33.433C97.5018 33.433 98.2467 33.2336 98.8552 32.8349C99.4638 32.4152 99.9254 31.7962 100.24 30.9779C100.576 30.1595 100.744 29.1838 100.744 28.0507C100.744 26.8546 100.565 25.8369 100.209 24.9975C99.8729 24.1372 99.3798 23.4762 98.7293 23.0146C98.0998 22.553 97.3024 22.3221 96.3372 22.3221C95.4979 22.3221 94.7634 22.532 94.1339 22.9516C93.5044 23.3503 93.0218 23.9484 92.6861 24.7457C92.3713 25.5431 92.2139 26.5293 92.2139 27.7044C92.2139 29.551 92.6021 30.9674 93.3785 31.9536C94.1759 32.9398 95.2565 33.433 96.6205 33.433ZM114.232 41.6795C113.393 41.6795 112.543 41.5956 111.683 41.4277C110.822 41.2598 110.014 40.9975 109.259 40.6408C108.525 40.3051 107.906 39.8644 107.402 39.3189L108.755 36.0454C109.364 36.7379 110.151 37.2625 111.116 37.6192C112.081 37.9759 113.057 38.1543 114.043 38.1543C115.197 38.1543 116.152 37.913 116.908 37.4303C117.663 36.9687 118.24 36.2448 118.639 35.2585C119.037 34.2723 119.258 33.0448 119.3 31.5759L119.52 28.5857H118.859C118.649 30.0126 118.303 31.1772 117.82 32.0795C117.338 32.9608 116.729 33.6113 115.995 34.031C115.281 34.4297 114.442 34.629 113.477 34.629C112.281 34.629 111.274 34.3248 110.455 33.7162C109.637 33.1077 109.018 32.2054 108.598 31.0093C108.199 29.8133 108 28.3339 108 26.5713V19.5838H111.997V25.6585C111.997 27.631 112.239 29.0684 112.721 29.9707C113.204 30.852 113.938 31.2926 114.925 31.2926C115.449 31.2926 115.932 31.1562 116.373 30.8834C116.813 30.5897 117.18 30.1805 117.474 29.6559C117.789 29.1103 118.03 28.4389 118.198 27.6415C118.387 26.8441 118.492 25.9313 118.513 24.9031V19.5838H122.51V31.7333C122.51 33.0552 122.395 34.2513 122.164 35.3215C121.954 36.3707 121.629 37.2834 121.188 38.0598C120.748 38.8572 120.192 39.5287 119.52 40.0743C118.87 40.6198 118.104 41.0185 117.222 41.2703C116.341 41.5431 115.344 41.6795 114.232 41.6795ZM139.002 36.0454V15.2716H142.999V36.0454H139.002ZM132.833 18.6395V15.2716H149.2V18.6395H132.833ZM157.296 36.4546C155.974 36.4546 154.788 36.2657 153.739 35.888C152.711 35.5103 151.84 34.9648 151.127 34.2513C150.413 33.5169 149.868 32.6356 149.49 31.6074C149.112 30.5792 148.924 29.4146 148.924 28.1136C148.924 26.8126 149.102 25.6166 149.459 24.5254C149.836 23.4343 150.371 22.49 151.064 21.6926C151.756 20.8952 152.596 20.2762 153.582 19.8356C154.589 19.3949 155.733 19.1746 157.013 19.1746C158.209 19.1746 159.279 19.3739 160.223 19.7726C161.167 20.1713 161.965 20.7693 162.615 21.5667C163.266 22.3431 163.748 23.3189 164.063 24.4939C164.378 25.648 164.483 26.991 164.378 28.5228L151.504 28.6172V26.3195L162.08 26.2251L160.695 27.5156C160.821 26.3195 160.727 25.3438 160.412 24.5884C160.097 23.812 159.646 23.2454 159.059 22.8887C158.471 22.511 157.8 22.3221 157.044 22.3221C156.184 22.3221 155.428 22.553 154.778 23.0146C154.127 23.4552 153.624 24.1057 153.267 24.9661C152.931 25.8054 152.764 26.8336 152.764 28.0507C152.764 29.8762 153.162 31.2402 153.96 32.1425C154.778 33.0448 155.89 33.4959 157.296 33.4959C157.925 33.4959 158.45 33.4225 158.87 33.2756C159.31 33.1077 159.678 32.8979 159.971 32.6461C160.265 32.3733 160.496 32.069 160.664 31.7333C160.853 31.3975 161 31.0408 161.104 30.6631L164.567 31.45C164.399 32.2264 164.126 32.9189 163.748 33.5274C163.371 34.1359 162.878 34.6605 162.269 35.1011C161.682 35.5418 160.979 35.8775 160.16 36.1084C159.342 36.3392 158.387 36.4546 157.296 36.4546ZM175.523 36.4546C174.096 36.4546 172.858 36.2448 171.809 35.8251C170.78 35.4054 169.92 34.8179 169.228 34.0625C168.556 33.2861 168.053 32.3838 167.717 31.3556C167.381 30.3274 167.213 29.2152 167.213 28.0192C167.213 26.7392 167.381 25.5641 167.717 24.4939C168.074 23.4238 168.598 22.49 169.291 21.6926C169.983 20.8952 170.833 20.2762 171.84 19.8356C172.868 19.3949 174.043 19.1746 175.365 19.1746C176.687 19.1746 177.831 19.3949 178.796 19.8356C179.782 20.2762 180.58 20.8952 181.188 21.6926C181.797 22.469 182.206 23.3818 182.416 24.431L178.702 25.5956C178.66 24.9661 178.492 24.41 178.198 23.9274C177.904 23.4238 177.506 23.0356 177.002 22.7628C176.498 22.49 175.9 22.3536 175.208 22.3536C174.536 22.3536 173.949 22.49 173.445 22.7628C172.963 23.0146 172.554 23.3818 172.218 23.8644C171.903 24.347 171.651 24.9346 171.462 25.627C171.294 26.2985 171.211 27.0539 171.211 27.8933C171.211 29.0474 171.368 30.0336 171.683 30.852C171.997 31.6703 172.48 32.3103 173.131 32.772C173.781 33.2126 174.589 33.433 175.554 33.433C176.414 33.433 177.107 33.2756 177.632 32.9608C178.177 32.6251 178.586 32.1949 178.859 31.6703C179.153 31.1457 179.331 30.5687 179.394 29.9392L182.919 30.7261C182.794 31.5864 182.552 32.3628 182.195 33.0552C181.839 33.7477 181.346 34.3562 180.716 34.8808C180.108 35.3844 179.373 35.7726 178.513 36.0454C177.653 36.3182 176.656 36.4546 175.523 36.4546ZM185.739 36.0454V25.8159V13.6979H189.736V18.8284C189.736 19.269 189.715 19.7202 189.673 20.1818C189.652 20.6434 189.61 21.1156 189.547 21.5982C189.484 22.0808 189.411 22.5634 189.327 23.0461C189.264 23.5287 189.19 24.0113 189.107 24.4939H189.768C190.061 23.3608 190.439 22.4061 190.901 21.6297C191.362 20.8323 191.95 20.2238 192.663 19.8041C193.398 19.3844 194.289 19.1746 195.339 19.1746C197.248 19.1746 198.675 19.8461 199.619 21.189C200.564 22.511 201.036 24.5254 201.036 27.2323V36.0454H197.038V27.7989C197.038 25.9943 196.766 24.6618 196.22 23.8015C195.695 22.9411 194.898 22.511 193.828 22.511C192.947 22.511 192.212 22.7838 191.625 23.3293C191.037 23.8539 190.586 24.5569 190.271 25.4382C189.956 26.3195 189.768 27.3162 189.705 28.4284V36.0454H185.739ZM222.2 36.4546C220.627 36.4546 219.221 36.2343 217.983 35.7936C216.745 35.332 215.696 34.6605 214.835 33.7792C213.975 32.8769 213.314 31.7648 212.852 30.4428C212.391 29.1208 212.16 27.61 212.16 25.9103C212.16 24.1477 212.391 22.5844 212.852 21.2205C213.335 19.8566 214.006 18.7025 214.867 17.7582C215.727 16.793 216.755 16.069 217.951 15.5864C219.147 15.1038 220.48 14.8625 221.949 14.8625C223.082 14.8625 224.131 15.0093 225.096 15.3031C226.061 15.5969 226.89 16.0375 227.583 16.6251C228.296 17.1916 228.852 17.8841 229.251 18.7025C229.65 19.4998 229.859 20.4126 229.88 21.4408L226.166 22.4166C226.187 21.4723 225.988 20.6854 225.568 20.0559C225.149 19.4264 224.603 18.9543 223.932 18.6395C223.281 18.3248 222.578 18.1674 221.823 18.1674C221.151 18.1674 220.48 18.3038 219.808 18.5766C219.158 18.8493 218.57 19.2795 218.046 19.8671C217.521 20.4546 217.101 21.231 216.787 22.1962C216.472 23.1405 216.315 24.3051 216.315 25.69C216.315 27.4526 216.566 28.8795 217.07 29.9707C217.595 31.0618 218.308 31.8697 219.21 32.3943C220.134 32.8979 221.172 33.1497 222.326 33.1497C223.501 33.1497 224.435 32.9189 225.128 32.4572C225.82 31.9746 226.324 31.3451 226.639 30.5687C226.953 29.7713 227.132 28.911 227.174 27.9877L230.667 28.5857C230.646 29.6769 230.479 30.7051 230.164 31.6703C229.849 32.6356 229.356 33.4749 228.684 34.1884C228.034 34.9018 227.174 35.4579 226.103 35.8566C225.033 36.2552 223.732 36.4546 222.2 36.4546ZM241.268 36.4546C239.653 36.4546 238.226 36.1293 236.988 35.4789C235.75 34.8074 234.774 33.8316 234.061 32.5516C233.368 31.2507 233.022 29.6559 233.022 27.7674C233.022 25.8369 233.379 24.2421 234.092 22.9831C234.826 21.7031 235.813 20.7484 237.051 20.1189C238.289 19.4893 239.684 19.1746 241.237 19.1746C242.853 19.1746 244.28 19.4998 245.518 20.1503C246.756 20.8008 247.731 21.7766 248.445 23.0775C249.158 24.3575 249.515 25.9523 249.515 27.8618C249.515 29.7923 249.158 31.3975 248.445 32.6775C247.731 33.9575 246.745 34.9123 245.486 35.5418C244.248 36.1503 242.842 36.4546 241.268 36.4546ZM241.426 33.433C242.307 33.433 243.052 33.2336 243.661 32.8349C244.269 32.4152 244.731 31.7962 245.045 30.9779C245.381 30.1595 245.549 29.1838 245.549 28.0507C245.549 26.8546 245.371 25.8369 245.014 24.9975C244.678 24.1372 244.185 23.4762 243.535 23.0146C242.905 22.553 242.108 22.3221 241.143 22.3221C240.303 22.3221 239.569 22.532 238.939 22.9516C238.31 23.3503 237.827 23.9484 237.491 24.7457C237.177 25.5431 237.019 26.5293 237.019 27.7044C237.019 29.551 237.407 30.9674 238.184 31.9536C238.981 32.9398 240.062 33.433 241.426 33.433ZM258.53 36.4546C256.642 36.4546 255.215 35.8146 254.25 34.5346C253.305 33.2336 252.833 31.2716 252.833 28.6487V19.5838H256.831V28.208C256.831 29.8657 257.082 31.1038 257.586 31.9221C258.09 32.7405 258.866 33.1497 259.915 33.1497C260.524 33.1497 261.059 33.0028 261.52 32.709C261.982 32.3943 262.381 31.9641 262.716 31.4185C263.052 30.852 263.314 30.2015 263.503 29.467C263.713 28.7326 263.839 27.9248 263.881 27.0434V19.5838H267.847V29.2782V36.0454H264.573L264.636 30.852H264.07C263.797 32.1739 263.409 33.2441 262.905 34.0625C262.423 34.8808 261.825 35.4893 261.111 35.888C260.398 36.2657 259.537 36.4546 258.53 36.4546ZM272.327 36.0454V27.7989V19.5838H275.663L275.6 25.2493H276.167C276.356 23.9064 276.649 22.7943 277.048 21.913C277.447 21.0107 278.003 20.3392 278.716 19.8985C279.43 19.4369 280.311 19.2061 281.36 19.2061C281.57 19.2061 281.79 19.2166 282.021 19.2375C282.273 19.2585 282.546 19.311 282.84 19.3949L282.682 23.5811C282.346 23.4552 282 23.3713 281.644 23.3293C281.308 23.2664 280.993 23.2349 280.699 23.2349C279.881 23.2349 279.167 23.4448 278.559 23.8644C277.971 24.2841 277.489 24.8821 277.111 25.6585C276.754 26.4139 276.482 27.3162 276.293 28.3654V36.0454H272.327ZM291.964 36.4546C290.852 36.4546 289.845 36.3392 288.943 36.1084C288.061 35.8985 287.306 35.5943 286.676 35.1956C286.047 34.7759 285.543 34.2828 285.166 33.7162C284.788 33.1287 284.557 32.4782 284.473 31.7648L287.589 30.6002C287.631 31.1457 287.841 31.6389 288.219 32.0795C288.596 32.4992 289.121 32.8349 289.792 33.0867C290.464 33.3385 291.272 33.4644 292.216 33.4644C293.265 33.4644 294.073 33.307 294.64 32.9923C295.227 32.6566 295.521 32.1844 295.521 31.5759C295.521 31.1352 295.364 30.789 295.049 30.5372C294.734 30.2644 294.272 30.0441 293.664 29.8762C293.076 29.6874 292.363 29.509 291.524 29.3411C290.747 29.1733 289.96 28.9844 289.163 28.7746C288.387 28.5438 287.663 28.25 286.991 27.8933C286.341 27.5156 285.806 27.033 285.386 26.4454C284.987 25.8369 284.788 25.071 284.788 24.1477C284.788 23.1405 285.05 22.2697 285.575 21.5352C286.12 20.8008 286.897 20.2238 287.904 19.8041C288.932 19.3844 290.17 19.1746 291.618 19.1746C292.982 19.1746 294.157 19.3634 295.143 19.7411C296.15 20.1189 296.969 20.6644 297.598 21.3779C298.228 22.0703 298.627 22.8992 298.794 23.8644L295.521 24.9031C295.458 24.3156 295.259 23.8225 294.923 23.4238C294.587 23.0041 294.136 22.6893 293.569 22.4795C293.003 22.2697 292.342 22.1648 291.587 22.1648C290.621 22.1648 289.866 22.3326 289.32 22.6684C288.775 23.0041 288.502 23.4552 288.502 24.0218C288.502 24.4834 288.67 24.8507 289.006 25.1234C289.362 25.3962 289.845 25.6166 290.453 25.7844C291.083 25.9523 291.796 26.1202 292.594 26.288C293.433 26.4559 294.241 26.6552 295.017 26.8861C295.815 27.0959 296.528 27.3792 297.158 27.7359C297.787 28.0926 298.291 28.5648 298.669 29.1523C299.046 29.7189 299.235 30.4533 299.235 31.3556C299.235 32.4467 298.941 33.3805 298.354 34.1569C297.766 34.9123 296.927 35.4893 295.836 35.888C294.766 36.2657 293.475 36.4546 291.964 36.4546ZM310.093 36.4546C308.771 36.4546 307.586 36.2657 306.536 35.888C305.508 35.5103 304.637 34.9648 303.924 34.2513C303.21 33.5169 302.665 32.6356 302.287 31.6074C301.909 30.5792 301.721 29.4146 301.721 28.1136C301.721 26.8126 301.899 25.6166 302.256 24.5254C302.633 23.4343 303.169 22.49 303.861 21.6926C304.553 20.8952 305.393 20.2762 306.379 19.8356C307.386 19.3949 308.53 19.1746 309.81 19.1746C311.006 19.1746 312.076 19.3739 313.02 19.7726C313.965 20.1713 314.762 20.7693 315.412 21.5667C316.063 22.3431 316.546 23.3189 316.86 24.4939C317.175 25.648 317.28 26.991 317.175 28.5228L304.302 28.6172V26.3195L314.877 26.2251L313.492 27.5156C313.618 26.3195 313.524 25.3438 313.209 24.5884C312.894 23.812 312.443 23.2454 311.856 22.8887C311.268 22.511 310.597 22.3221 309.841 22.3221C308.981 22.3221 308.226 22.553 307.575 23.0146C306.925 23.4552 306.421 24.1057 306.064 24.9661C305.729 25.8054 305.561 26.8336 305.561 28.0507C305.561 29.8762 305.959 31.2402 306.757 32.1425C307.575 33.0448 308.687 33.4959 310.093 33.4959C310.723 33.4959 311.247 33.4225 311.667 33.2756C312.108 33.1077 312.475 32.8979 312.769 32.6461C313.062 32.3733 313.293 32.069 313.461 31.7333C313.65 31.3975 313.797 31.0408 313.902 30.6631L317.364 31.45C317.196 32.2264 316.923 32.9189 316.546 33.5274C316.168 34.1359 315.675 34.6605 315.066 35.1011C314.479 35.5418 313.776 35.8775 312.957 36.1084C312.139 36.3392 311.184 36.4546 310.093 36.4546Z" fill="#4970FB"/>
<path d="M26.5146 31.6289L38.4617 40.6455" stroke="#4970FB" stroke-width="1.97041"/>
<path d="M23.3589 21.2591L25.1622 16.5254" stroke="#4970FB" stroke-width="1.97041"/>
<path d="M13.8916 17.2021L17.4983 22.3867" stroke="#4970FB" stroke-width="1.97041"/>
<circle cx="20.8793" cy="27.7963" r="6.22809" stroke="#4970FB" stroke-width="1.97041"/>
<path d="M26.9653 25.9929L37.5599 21.71" stroke="#4970FB" stroke-width="1.97041"/>
<circle cx="42.0682" cy="20.3577" r="4.42477" stroke="#4970FB" stroke-width="1.97041"/>
<circle cx="26.7401" cy="12.0174" r="4.42477" stroke="#4970FB" stroke-width="1.97041"/>
<circle cx="10.9611" cy="12.4679" r="4.65018" stroke="#4970FB" stroke-width="1.97041"/>
<circle cx="42.2936" cy="43.5753" r="4.65018" stroke="#4970FB" stroke-width="1.97041"/>
<circle cx="11.1867" cy="41.9977" r="4.65018" stroke="#4970FB" stroke-width="1.97041"/>
<path d="M13.666 37.94L17.2727 33.4316" stroke="#4970FB" stroke-width="1.97041"/>
<path d="M39.4087 19.6757L41.4374 21.4791L44.5933 18.3232" stroke="#4970FB" stroke-width="1.06509"/>
<path d="M39.4087 43.1248L41.4926 44.9506L44.7341 41.7554" stroke="#4970FB" stroke-width="1.97041"/>
<path d="M8.70703 41.7724L10.7358 43.5757L13.8916 40.4199" stroke="#4970FB" stroke-width="1.97041"/>
</svg>
