<svg width="55" height="55" viewBox="0 0 55 55" fill="none" xmlns="http://www.w3.org/2000/svg">
<rect x="1.22949" y="1" width="52.5417" height="52.5417" rx="26.2708" fill="white"/>
<rect x="1.22949" y="1" width="52.5417" height="52.5417" rx="26.2708" stroke="#D1D1D1" stroke-width="2"/>
<path d="M23.8173 23.79C23.0691 25.6245 22.5766 27.5186 22.5766 29.3273V35.9102C22.5766 37.5837 23.9334 38.9404 25.6069 38.9403L18.0315 38.9405C15.5213 38.9405 13.4863 36.9056 13.4863 34.3954V28.3352C13.4863 25.825 15.5213 23.79 18.0315 23.79H23.8173Z" stroke="#D1D1D1" stroke-width="2" stroke-linecap="round"/>
<path d="M36.5904 35.1517H37.7266C38.7726 35.1517 39.6204 35.9996 39.6204 37.0456C39.6204 38.0915 38.7726 38.9394 37.7266 38.9394L25.6065 38.9402C23.9329 38.9403 22.5762 37.5836 22.5762 35.9101V29.3272C22.5762 23.5187 27.6556 16.8298 29.9681 14.0633C30.6127 13.2922 31.7067 13.1155 32.5825 13.6088C33.4722 14.1099 33.8955 15.1611 33.6013 16.1389L31.2877 23.7901" stroke="#D1D1D1" stroke-width="2" stroke-linecap="round"/>
<path d="M38.1049 31.3638H39.2412C40.2871 31.3638 41.135 32.2117 41.135 33.2576C41.135 34.3035 40.2871 35.1514 39.2412 35.1514H36.5898" stroke="#D1D1D1" stroke-width="2" stroke-linecap="round"/>
<path d="M36.5898 27.5767H39.6199C40.6659 27.5767 41.5137 28.4245 41.5137 29.4705C41.5137 30.5164 40.6659 31.3643 39.6199 31.3643H38.4837" stroke="#D1D1D1" stroke-width="2" stroke-linecap="round"/>
<path d="M31.2871 23.7891H37.7261C38.772 23.7891 39.6199 24.6369 39.6199 25.6829C39.6199 26.7288 38.772 27.5767 37.7261 27.5767H36.5898" stroke="#D1D1D1" stroke-width="2" stroke-linecap="round"/>
</svg>
