<svg width="40" height="40" viewBox="0 0 40 40" fill="none" xmlns="http://www.w3.org/2000/svg">
<rect x="0.733384" y="0.733384" width="38.5332" height="38.5332" rx="19.2666" fill="white"/>
<rect x="0.733384" y="0.733384" width="38.5332" height="38.5332" rx="19.2666" stroke="#4970FB" stroke-width="1.46677"/>
<g clip-path="url(#clip0_796_2153)">
<path d="M20.7188 11.1325L23.051 15.8409C23.104 15.9604 23.1875 16.0639 23.293 16.1411C23.3985 16.2183 23.5224 16.2665 23.6524 16.2809L28.8007 17.0436C28.9498 17.0628 29.0904 17.1239 29.2059 17.22C29.3215 17.316 29.4075 17.443 29.4535 17.586C29.4997 17.7291 29.5041 17.8823 29.4664 18.0278C29.4289 18.1733 29.3506 18.305 29.2407 18.4077L25.5298 22.0893C25.4352 22.1778 25.364 22.2885 25.3231 22.4115C25.282 22.5345 25.2725 22.6657 25.2951 22.7933L26.1898 27.971C26.2158 28.1199 26.1994 28.2728 26.1426 28.4128C26.0858 28.5527 25.9909 28.6738 25.8686 28.7626C25.7464 28.8512 25.6016 28.9037 25.451 28.9143C25.3004 28.9247 25.1497 28.8927 25.0164 28.8217L20.3815 26.3722C20.2628 26.314 20.1323 26.2837 20.0001 26.2837C19.8679 26.2837 19.7374 26.314 19.6187 26.3722L14.9838 28.8217C14.8504 28.8927 14.6998 28.9247 14.5492 28.9143C14.3985 28.9037 14.2538 28.8512 14.1316 28.7626C14.0093 28.6738 13.9144 28.5527 13.8576 28.4128C13.8008 28.2728 13.7844 28.1199 13.8103 27.971L14.7051 22.7347C14.7277 22.6071 14.7182 22.4758 14.6772 22.3528C14.6362 22.2299 14.5651 22.1191 14.4704 22.0306L10.7155 18.4077C10.6044 18.3022 10.5263 18.1668 10.4906 18.0179C10.4549 17.8689 10.4631 17.7128 10.5144 17.5684C10.5656 17.4241 10.6576 17.2977 10.7792 17.2045C10.9008 17.1114 11.0468 17.0555 11.1995 17.0436L16.3479 16.2809C16.4778 16.2665 16.6017 16.2183 16.7072 16.1411C16.8128 16.0639 16.8962 15.9604 16.9492 15.8409L19.2814 11.1325C19.3449 10.9954 19.4463 10.8793 19.5737 10.7979C19.701 10.7166 19.849 10.6733 20.0001 10.6733C20.1512 10.6733 20.2992 10.7166 20.4266 10.7979C20.5539 10.8793 20.6553 10.9954 20.7188 11.1325Z" stroke="#4970FB" stroke-width="1.46677" stroke-linecap="round" stroke-linejoin="round"/>
</g>
<defs>
<clipPath id="clip0_796_2153">
<rect width="20.5348" height="20.5348" fill="white" transform="translate(9.73242 9.53369)"/>
</clipPath>
</defs>
</svg>
