<svg width="20" height="20" viewBox="0 0 20 20" fill="none" xmlns="http://www.w3.org/2000/svg">
<path d="M8.82114 8.4971C8.8538 8.41544 8.90272 8.34126 8.96491 8.27907L14.3816 2.86242C15.1425 2.10152 16.3761 2.10152 17.137 2.86242C17.8979 3.62332 17.8979 4.85698 17.137 5.61788L11.7204 11.0345C11.6582 11.0967 11.584 11.1456 11.5023 11.1783L7.7372 12.6843C7.47211 12.7904 7.20905 12.5273 7.31509 12.2622L8.82114 8.4971Z" stroke="white" stroke-width="2" stroke-linecap="round" stroke-linejoin="round"/>
<path d="M16.4605 6.29501L13.7051 3.53955" stroke="white" stroke-width="2" stroke-linecap="round" stroke-linejoin="round"/>
<path d="M9.37435 2.29175H5.62435C3.7834 2.29175 2.29102 3.78413 2.29102 5.62508V14.3751C2.29102 16.216 3.7834 17.7084 5.62435 17.7084H14.3743C16.2153 17.7084 17.7077 16.216 17.7077 14.3751V10.6251" stroke="white" stroke-width="2" stroke-linecap="round" stroke-linejoin="round"/>
</svg>
